<?xml version="1.0" standalone="no"?>
<!DOCTYPE svg PUBLIC "-//W3C//DTD SVG 20010904//EN"
 "http://www.w3.org/TR/2001/REC-SVG-20010904/DTD/svg10.dtd">
<svg version="1.0" xmlns="http://www.w3.org/2000/svg"
 width="300.000000pt" height="300.000000pt" viewBox="0 0 300.000000 300.000000"
 preserveAspectRatio="xMidYMid meet">
<metadata>
Created by potrace 1.10, written by Peter Selinger 2001-2011
</metadata>
<g transform="translate(0.000000,300.000000) scale(0.100000,-0.100000)"
fill="#000000" stroke="none">
<path d="M1432 2453 l-53 -4 7 -34 c6 -31 4 -35 -22 -40 -38 -9 -129 -34 -147
-41 -10 -3 -18 5 -26 26 -9 27 -14 30 -33 24 -37 -11 -98 -44 -165 -87 l-61
-40 20 -27 20 -27 -68 -66 -67 -66 -28 20 -27 19 -35 -47 c-54 -75 -111 -183
-100 -194 5 -5 24 -12 43 -15 l35 -7 -20 22 -19 22 32 62 c50 96 63 110 93 99
33 -13 50 -3 126 74 56 56 62 67 60 100 -2 36 0 38 68 75 81 45 91 46 120 19
21 -19 24 -20 91 -4 94 21 131 39 139 66 11 33 22 38 102 38 78 0 103 -6 103
-25 0 -21 39 -49 88 -63 132 -37 130 -37 162 -13 l30 21 42 -21 c23 -12 59
-33 80 -47 35 -23 37 -27 32 -61 -5 -34 -2 -39 70 -109 69 -68 78 -73 106 -67
26 6 35 2 54 -20 21 -24 67 -114 80 -157 3 -11 12 -15 24 -11 20 5 20 5 0 51
-12 26 -43 82 -71 125 l-50 79 -24 -25 -25 -24 -72 71 -72 71 23 26 24 26 -78
50 c-43 28 -99 59 -125 71 l-47 21 -12 -34 -12 -33 -36 15 c-20 8 -63 21 -96
27 l-60 13 3 36 c3 35 2 37 -26 37 -16 0 -56 2 -88 4 -32 2 -83 2 -112 -1z"/>
<path d="M1359 2315 c-34 -19 -38 -29 -29 -93 8 -63 21 -78 77 -85 49 -6 75
15 91 73 l10 35 1 -36 c1 -44 23 -64 79 -73 33 -5 44 -3 48 9 4 8 15 15 26 15
15 0 18 -5 13 -20 -5 -14 -2 -20 10 -20 9 0 13 5 10 10 -7 12 33 140 43 140
16 0 72 -41 72 -52 0 -19 -12 -33 -33 -41 -15 -6 -16 -10 -4 -39 7 -18 21 -35
31 -36 9 -2 41 12 69 32 68 47 80 47 70 -1 -10 -48 -10 -129 0 -139 4 -4 30
14 57 41 l50 49 27 -25 c15 -13 31 -28 35 -34 4 -5 8 0 8 12 0 24 -43 63 -70
63 -10 0 -32 -14 -50 -30 -18 -17 -35 -28 -38 -26 -3 3 0 29 6 58 11 59 9 69
-18 86 -17 10 -26 9 -51 -5 -17 -10 -40 -22 -50 -28 -11 -5 -19 -13 -19 -17 0
-5 -7 -8 -15 -8 -20 0 -19 6 6 47 18 29 20 38 9 58 -7 13 -27 31 -46 41 -28
15 -36 16 -58 5 -13 -8 -27 -24 -30 -37 -4 -13 -13 -24 -22 -24 -12 0 -14 7
-9 28 7 34 -25 68 -73 78 -28 6 -37 2 -64 -28 l-32 -34 -26 28 c-30 34 -76 43
-111 23z m90 -41 c40 -50 14 -124 -42 -124 -37 0 -58 22 -64 67 -4 33 -1 45
16 62 29 29 65 27 90 -5z m183 9 c10 -9 18 -23 18 -31 0 -12 -5 -10 -23 6 -42
40 -87 18 -87 -42 0 -28 26 -49 53 -42 32 8 36 31 6 39 -16 4 -19 2 -14 -11 4
-11 3 -13 -3 -7 -16 16 -3 75 15 68 8 -3 12 -11 9 -18 -3 -8 5 -16 20 -19 29
-8 30 -16 3 -50 -53 -67 -139 9 -98 87 7 12 17 25 23 29 19 13 59 9 78 -9z"/>
<path d="M1372 2268 c-15 -15 -16 -52 -2 -79 16 -29 58 -25 72 7 22 48 -35
107 -70 72z m58 -39 c0 -22 -12 -30 -29 -19 -9 5 -11 17 -7 35 6 22 9 25 21
15 8 -7 15 -21 15 -31z"/>
<path d="M1184 2266 c-27 -20 -11 -30 28 -17 28 10 35 9 52 -9 18 -18 19 -23
7 -41 -14 -23 -13 -24 33 -50 16 -10 18 -9 11 7 -4 11 -11 36 -15 56 -4 21
-13 44 -20 53 -16 19 -70 20 -96 1z"/>
<path d="M1211 2231 c-8 -5 -11 -16 -6 -30 8 -25 14 -26 40 -7 16 12 17 16 6
30 -15 18 -21 19 -40 7z"/>
<path d="M1736 2223 c-7 -17 9 -33 32 -33 19 0 27 31 11 41 -21 13 -36 11 -43
-8z"/>
<path d="M1165 2210 c17 -57 43 -114 53 -118 12 -4 -33 117 -50 133 -7 7 -8 2
-3 -15z"/>
<path d="M1043 2185 c-38 -33 -8 -33 32 0 22 18 26 24 13 25 -9 0 -30 -11 -45
-25z"/>
<path d="M1099 2179 c-9 -9 -22 -18 -28 -20 -7 -3 -9 -12 -5 -22 4 -10 13 -16
20 -13 8 3 21 9 29 12 8 3 15 1 15 -4 0 -6 -9 -14 -20 -17 -23 -7 -25 -15 -7
-39 13 -17 15 -17 43 8 16 14 23 26 17 26 -7 0 -13 7 -13 15 0 8 -4 15 -9 15
-4 0 -12 13 -17 28 -8 26 -10 27 -25 11z"/>
<path d="M1716 2168 c-9 -35 -7 -41 9 -34 10 3 15 -1 15 -14 0 -20 17 -36 27
-26 4 4 1 12 -5 18 -7 7 -12 22 -12 34 0 12 -6 27 -14 33 -11 9 -15 7 -20 -11z"/>
<path d="M1220 2163 c1 -5 7 -19 15 -33 12 -22 14 -22 15 -5 0 15 3 16 12 7 7
-7 21 -12 31 -12 15 0 11 6 -17 25 -37 25 -56 31 -56 18z"/>
<path d="M1020 2145 c0 -3 17 -32 37 -65 33 -52 40 -59 63 -53 38 8 70 32 70
51 0 11 -3 13 -8 6 -6 -10 -65 -44 -76 -44 -3 0 -20 25 -38 55 -28 47 -48 68
-48 50z"/>
<path d="M1900 2129 c-21 -16 -23 -20 -10 -29 8 -5 18 -10 21 -10 6 0 20 52
15 57 -1 1 -12 -7 -26 -18z"/>
<path d="M917 2082 c-14 -15 -14 -22 3 -67 30 -83 47 -118 53 -109 3 5 -8 40
-24 78 -16 38 -26 73 -22 77 9 8 134 -40 145 -56 5 -6 8 -7 8 0 0 19 -15 32
-58 54 -76 39 -89 41 -105 23z"/>
<path d="M1844 2089 c-3 -6 -15 -9 -25 -6 -11 3 -19 0 -19 -5 0 -6 12 -8 30
-4 41 8 68 -10 62 -40 -3 -18 0 -24 14 -24 13 0 15 3 7 11 -6 6 -9 18 -6 26 4
9 -4 23 -18 34 -28 22 -35 23 -45 8z"/>
<path d="M1363 2058 c-18 -5 -33 -13 -33 -18 0 -6 -7 -10 -15 -10 -9 0 -30 -8
-48 -17 -18 -9 -35 -16 -39 -15 -5 1 -8 -3 -8 -9 0 -6 -7 -9 -15 -5 -9 3 -15
0 -15 -9 0 -8 -3 -14 -7 -14 -20 3 -34 -2 -28 -11 3 -5 -1 -10 -9 -10 -9 0
-16 -7 -16 -15 0 -8 -4 -15 -9 -15 -5 0 -19 -16 -31 -36 -17 -27 -20 -38 -11
-47 14 -14 842 -18 874 -5 18 8 18 9 0 40 -10 18 -24 37 -30 41 -7 4 -13 15
-13 22 0 8 -5 15 -11 15 -6 0 -20 12 -31 26 -16 20 -23 23 -29 12 -7 -10 -9
-9 -9 5 0 11 -4 15 -12 11 -6 -4 -16 -1 -22 7 -6 8 -18 14 -26 14 -8 0 -14 5
-13 11 1 7 -6 10 -18 7 -12 -3 -24 0 -29 6 -4 7 -25 17 -46 22 -48 11 -257 9
-301 -3z m291 -24 c92 -24 185 -77 251 -144 l59 -60 -444 0 -444 0 59 60 c133
134 337 191 519 144z"/>
<path d="M2040 2045 c-11 -13 -11 -19 3 -33 13 -12 17 -13 17 -3 0 10 3 11 14
2 25 -21 27 5 2 28 -21 20 -24 20 -36 6z"/>
<path d="M956 2017 c9 -30 11 -32 29 -17 18 15 13 26 -15 33 -18 4 -20 2 -14
-16z"/>
<path d="M1991 1996 c-14 -15 -29 -22 -39 -19 -9 4 -13 2 -9 -4 10 -16 55 -13
62 4 4 12 8 13 20 3 24 -20 31 -2 9 21 -20 19 -20 19 -43 -5z"/>
<path d="M998 1986 c-10 -13 -14 -32 -11 -45 8 -32 20 -25 27 15 5 25 11 34
21 30 8 -3 17 -1 20 4 4 6 2 10 -4 10 -5 0 -15 2 -23 5 -7 2 -21 -6 -30 -19z"/>
<path d="M2086 1958 c-49 -33 -69 -58 -46 -58 7 0 34 16 60 35 50 36 60 41 60
26 0 -14 -108 -84 -119 -77 -6 4 -11 0 -11 -8 0 -30 71 -6 123 42 31 29 33 38
13 58 -20 19 -25 18 -80 -18z"/>
<path d="M274 1504 c-76 -185 -141 -341 -142 -346 -2 -5 108 -7 244 -6 l249 3
42 -85 c24 -47 53 -98 66 -114 23 -28 24 -28 49 -12 l26 17 71 -73 71 -72 -23
-24 -22 -24 35 -28 c34 -28 158 -103 191 -115 12 -5 20 2 28 26 7 20 16 29 25
26 42 -16 151 -47 166 -47 14 0 17 -8 16 -37 l-1 -38 70 -8 c39 -4 100 -4 138
-1 l68 6 -7 33 -6 32 62 12 c33 7 78 18 100 26 l39 14 11 -34 11 -33 56 24
c31 14 88 46 126 70 l69 45 -22 24 -22 23 76 74 c74 74 75 74 98 56 13 -10 26
-18 30 -18 15 0 138 210 138 236 0 2 -8 4 -17 3 -12 0 -29 -23 -50 -68 -48
-99 -68 -122 -102 -115 -37 8 -46 2 -130 -79 -65 -64 -69 -70 -64 -105 l5 -37
-81 -43 -81 -44 -30 26 c-24 20 -36 23 -54 16 -13 -5 -49 -13 -81 -19 -68 -13
-102 -32 -115 -67 -9 -23 -14 -24 -89 -24 -88 0 -111 5 -111 26 0 22 -34 50
-76 62 -160 46 -146 44 -177 22 l-27 -21 -59 31 c-84 45 -102 64 -94 100 4 21
0 36 -11 49 -16 18 -15 18 23 11 22 -4 46 -3 53 1 23 15 26 10 22 -31 -2 -21
1 -42 7 -46 6 -3 9 1 7 9 -4 20 54 127 69 127 7 0 25 -11 40 -24 23 -20 26
-28 17 -43 -6 -10 -21 -19 -33 -21 -15 -3 -21 -8 -17 -19 3 -8 6 -23 6 -34 0
-10 5 -19 10 -19 6 0 10 6 10 13 0 15 33 57 45 57 4 0 4 -8 0 -17 -14 -33 -13
-103 1 -103 8 0 11 6 8 15 -7 18 34 135 47 135 13 0 11 -9 -11 -69 -26 -66
-22 -103 5 -49 21 42 35 41 35 -3 0 -33 31 -69 59 -69 11 0 26 -3 35 -6 9 -3
25 4 40 19 21 22 25 33 22 79 -3 68 -8 75 -58 89 -36 9 -44 8 -69 -11 -20 -14
-29 -17 -29 -7 0 7 -6 22 -14 33 -12 15 -17 17 -27 7 -20 -19 -36 -16 -43 10
-3 12 -22 32 -42 45 -33 22 -37 22 -60 7 -24 -15 -24 -15 -24 14 0 17 -11 42
-26 60 -61 72 -175 11 -154 -82 l8 -37 -48 51 c-43 46 -50 50 -81 44 -32 -6
-36 -3 -59 37 -14 24 -37 67 -50 95 -19 39 -33 55 -55 63 -16 5 -117 9 -224 9
-106 0 -197 3 -202 8 -8 8 12 73 46 148 8 17 51 120 96 230 45 110 85 205 90
211 6 7 60 13 132 17 67 2 133 9 147 15 32 14 42 12 -141 19 l-156 5 -139
-338z m771 -509 c31 -31 31 -46 0 -84 -33 -39 -60 -47 -90 -27 -44 29 -41 78
9 118 29 24 53 22 81 -7z m379 -181 c9 -8 16 -23 16 -32 -1 -14 -4 -13 -19 6
-35 41 -81 23 -81 -33 0 -52 48 -76 70 -35 9 17 8 20 -10 20 -24 0 -35 22 -23
45 9 15 11 15 24 -1 8 -10 9 -15 2 -11 -6 4 -14 3 -17 -2 -3 -5 8 -11 24 -15
35 -7 38 -24 10 -54 -27 -29 -55 -28 -86 3 -21 21 -24 31 -19 58 4 18 14 40
23 50 19 21 65 22 86 1z"/>
<path d="M965 974 c-29 -31 -31 -46 -9 -68 23 -23 39 -20 69 15 23 28 24 34
12 53 -21 31 -43 31 -72 0z m62 -10 c3 -10 -36 -38 -44 -31 -2 3 1 15 7 27 11
21 31 23 37 4z"/>
<path d="M2390 1831 l-45 -6 41 -12 c23 -7 83 -13 134 -13 l93 0 -8 -32 c-11
-51 -7 -80 18 -106 21 -23 54 -26 117 -11 8 2 14 0 13 -6 -2 -9 -91 -232 -112
-280 -5 -11 -16 -38 -26 -60 -47 -114 -41 -109 -135 -116 -47 -3 -96 -10 -110
-15 l-25 -8 30 -7 c56 -12 212 -10 218 4 4 10 260 631 274 665 4 9 -42 12
-213 10 -121 0 -239 -4 -264 -7z m414 -46 c3 -8 -2 -28 -11 -44 l-17 -29 -13
36 c-7 21 -13 40 -13 45 0 14 48 7 54 -8z m-74 -17 c40 -43 11 -108 -49 -108
-30 0 -71 38 -71 65 0 7 9 24 21 39 26 33 70 35 99 4z"/>
<path d="M2647 1762 c-22 -24 -21 -55 1 -75 23 -21 46 -22 66 -1 21 21 20 57
-2 77 -24 22 -45 21 -65 -1z m59 -13 c3 -6 1 -16 -5 -22 -7 -7 -7 -14 0 -24 8
-9 8 -13 1 -13 -6 0 -14 5 -18 11 -4 8 -9 7 -15 -2 -6 -9 -9 -1 -9 24 0 30 4
37 19 37 11 0 23 -5 27 -11z"/>
<path d="M2356 1729 c-39 -11 -101 -55 -114 -82 -65 -133 -45 -256 50 -315 54
-34 104 -37 186 -12 106 32 152 91 154 196 2 60 -30 134 -70 164 -15 11 -32
24 -38 29 -28 23 -119 34 -168 20z m143 -47 c124 -63 136 -242 21 -318 -126
-84 -290 2 -290 151 0 48 25 108 56 137 56 50 149 63 213 30z"/>
<path d="M2343 1585 c-32 -32 -35 -40 -30 -77 8 -60 45 -93 103 -93 39 0 50 5
75 33 42 46 40 93 -5 138 -48 48 -95 47 -143 -1z m121 -26 c15 -17 26 -43 26
-59 0 -22 -6 -30 -31 -39 -46 -16 -66 -14 -89 9 -22 22 -25 54 -10 94 15 39
69 36 104 -5z"/>
<path d="M518 1713 c-8 -10 -35 -90 -61 -178 -66 -230 -64 -212 -27 -217 17
-3 33 -1 36 4 3 5 9 6 14 3 5 -3 17 6 28 20 16 20 29 25 65 25 39 0 46 -3 51
-24 7 -30 56 -38 99 -18 42 21 41 32 -35 297 -26 93 -38 105 -103 105 -37 0
-56 -5 -67 -17z m160 -176 c24 -89 46 -170 49 -180 5 -16 0 -18 -33 -15 -31 2
-39 7 -44 28 -5 23 -11 25 -74 28 -67 3 -67 3 -79 -28 -10 -25 -17 -30 -45
-30 -27 0 -33 3 -28 15 3 9 26 84 51 168 25 83 48 158 50 165 3 7 24 12 57 12
l53 0 43 -163z"/>
<path d="M554 1567 c-11 -40 -24 -80 -29 -89 -6 -16 -1 -18 47 -18 l55 0 -23
86 c-13 48 -25 88 -26 89 -2 2 -12 -29 -24 -68z"/>
<path d="M857 1710 c-31 -25 -61 -119 -53 -165 8 -42 31 -62 92 -80 27 -8 58
-20 68 -28 16 -11 10 -12 -40 -7 -33 4 -67 5 -77 2 -22 -6 -37 -41 -37 -88 l0
-34 113 1 c175 0 212 23 204 124 -4 44 -10 54 -51 92 -28 25 -62 45 -82 49
-53 10 -40 21 31 26 35 2 67 7 70 10 4 4 10 22 15 42 6 28 4 39 -12 55 -16 19
-31 21 -117 21 -84 0 -102 -3 -124 -20z m233 -51 l0 -40 -77 1 c-103 2 -100 2
-107 -15 -4 -12 14 -25 71 -53 54 -26 85 -47 100 -71 27 -40 30 -87 7 -119
-14 -21 -23 -22 -128 -22 l-114 0 -4 35 -4 35 98 0 c79 0 98 3 98 14 0 21 -35
43 -107 67 -35 11 -70 30 -78 42 -29 42 -10 131 32 156 10 6 62 11 116 11 l97
0 0 -41z"/>
<path d="M1150 1698 c-13 -21 -19 -46 -18 -68 3 -34 4 -35 51 -38 l47 -3 0
-146 0 -146 50 5 c80 8 82 12 78 159 l-3 127 37 6 c41 7 58 28 58 75 0 51 -27
61 -162 61 l-118 0 -20 -32z m270 -38 l0 -40 -45 0 -45 0 0 -145 0 -145 -41 0
-41 0 4 145 3 145 -47 0 -48 0 0 40 0 40 130 0 130 0 0 -40z"/>
<path d="M1528 1722 c-9 -2 -21 -17 -27 -34 -16 -44 -15 -360 1 -376 8 -8 51
-12 125 -12 118 0 164 12 177 45 3 9 6 90 6 179 0 157 -1 163 -23 184 -31 29
-61 28 -86 -4 -19 -24 -21 -40 -21 -150 0 -131 -4 -140 -46 -110 -17 13 -19
28 -20 131 -2 101 -4 118 -20 130 -23 17 -44 22 -66 17z m52 -172 l0 -145 65
0 65 0 0 148 0 147 35 0 35 0 -2 -182 -3 -183 -127 -3 -128 -3 0 183 0 183 30
0 30 0 0 -145z"/>
<path d="M1874 1709 c-17 -19 -19 -38 -19 -218 l0 -196 38 -3 c51 -4 91 21 84
54 -6 32 -3 30 23 -11 19 -31 26 -35 63 -35 89 0 110 22 81 83 -17 35 -17 36
9 66 28 34 44 116 33 169 -16 69 -97 112 -214 112 -67 0 -82 -3 -98 -21z m228
-36 c37 -18 58 -62 58 -120 0 -56 -19 -88 -61 -106 l-29 -12 35 -52 c19 -29
35 -55 35 -58 0 -3 -20 -5 -44 -5 -44 0 -46 2 -78 55 -18 30 -38 55 -45 55 -9
0 -13 -17 -13 -55 l0 -55 -40 0 -40 0 0 189 0 189 98 -5 c53 -3 109 -12 124
-20z"/>
<path d="M1952 1563 l3 -57 44 -3 c77 -5 118 42 79 92 -16 21 -28 25 -74 25
l-55 0 3 -57z m86 21 c12 -8 22 -24 22 -36 0 -17 -4 -19 -27 -13 -59 14 -73
57 -23 64 3 1 16 -6 28 -15z"/>
<path d="M1105 1170 c-11 -5 175 -9 414 -9 239 -1 432 2 428 5 -9 10 -819 13
-842 4z"/>
<path d="M1090 1137 c0 -18 64 -87 80 -87 6 0 10 -7 10 -15 0 -8 6 -12 14 -9
8 3 16 -4 20 -18 4 -13 10 -18 12 -11 4 9 11 9 29 1 14 -6 22 -15 18 -21 -3
-6 -2 -7 4 -4 6 4 36 -3 68 -14 82 -29 203 -35 290 -14 39 9 85 19 102 22 20
3 30 9 26 16 -4 6 0 8 10 4 9 -3 18 0 21 8 3 9 12 12 21 9 10 -4 15 -2 13 7
-2 8 7 15 20 17 12 2 20 7 17 12 -3 5 3 11 13 14 25 8 58 45 67 76 6 21 -1 17
-46 -26 -63 -59 -123 -95 -205 -126 -85 -31 -263 -31 -348 0 -82 30 -142 67
-203 125 -35 33 -53 44 -53 34z"/>
<path d="M2000 1054 c0 -12 109 -122 115 -116 11 11 4 25 -36 63 -42 40 -79
65 -79 53z"/>
<path d="M1980 1018 c0 -16 97 -105 105 -96 3 2 -20 29 -50 58 -35 35 -55 48
-55 38z"/>
<path d="M1926 913 c20 -27 40 -52 44 -56 9 -10 62 32 54 44 -3 5 -12 5 -23
-1 -14 -7 -25 -2 -51 25 -51 53 -69 44 -24 -12z"/>
<path d="M1877 917 c35 -56 81 -104 100 -104 25 -1 92 51 81 63 -4 4 -25 -5
-46 -20 -21 -14 -41 -26 -44 -26 -4 0 -23 23 -43 50 -20 28 -41 50 -46 50 -6
0 -6 -6 -2 -13z"/>
<path d="M1776 897 c-15 -11 -16 -24 -10 -98 6 -84 7 -86 31 -81 16 3 29 15
35 33 10 30 22 37 33 19 3 -5 11 -10 18 -10 6 0 2 9 -9 21 -18 17 -24 18 -47
8 -18 -8 -27 -20 -27 -36 0 -12 -4 -23 -9 -23 -5 0 -11 34 -13 75 -2 50 1 75
8 75 6 0 37 -22 68 -50 31 -27 59 -50 61 -50 14 0 -14 46 -45 74 -55 49 -74
58 -94 43z"/>
<path d="M1125 879 c-11 -32 23 -51 44 -25 9 11 8 18 -4 30 -22 22 -32 20 -40
-5z"/>
<path d="M1675 843 c4 -10 11 -38 16 -63 5 -25 12 -53 15 -62 10 -32 -19 -19
-59 25 l-38 42 7 -35 c6 -36 24 -65 24 -40 0 10 5 9 19 -4 24 -21 65 -17 69 6
7 37 -18 123 -40 137 -19 12 -20 11 -13 -6z"/>
<path d="M1798 825 c4 -24 21 -33 35 -18 7 7 -21 43 -33 43 -4 0 -5 -11 -2
-25z"/>
<path d="M1091 814 c-10 -23 -9 -26 4 -21 11 5 15 0 15 -17 0 -13 7 -26 15
-30 12 -4 14 0 10 19 -3 14 -7 36 -10 50 -7 32 -19 32 -34 -1z"/>
<path d="M1505 830 c-3 -6 -1 -10 4 -10 6 0 11 -21 11 -47 0 -27 3 -58 6 -70
11 -41 24 -13 24 50 0 51 -4 64 -20 74 -12 8 -21 9 -25 3z"/>
<path d="M1574 829 c-11 -19 17 -159 33 -159 10 0 11 5 5 18 -5 9 -12 35 -16
57 -4 22 -9 48 -12 58 -10 32 23 18 56 -23 18 -23 34 -39 37 -36 2 2 -1 24 -8
47 -6 24 -14 38 -16 32 -4 -10 -8 -9 -20 2 -17 18 -49 20 -59 4z"/>
<path d="M1492 738 c-2 -66 0 -78 14 -78 12 0 14 3 6 13 -6 7 -13 42 -15 77
l-3 65 -2 -77z"/>
</g>
</svg>
